<?xml version="1.0" encoding="utf-8"?>
<!-- Generator: Adobe Illustrator 16.0.0, SVG Export Plug-In . SVG Version: 6.00 Build 0)  -->
<!DOCTYPE svg PUBLIC "-//W3C//DTD SVG 1.1//EN" "http://www.w3.org/Graphics/SVG/1.1/DTD/svg11.dtd">
<svg version="1.1" id="Layer_1" xmlns="http://www.w3.org/2000/svg" xmlns:xlink="http://www.w3.org/1999/xlink" x="0px" y="0px"
	 width="1024px" height="768px" viewBox="0 0 1024 768" enable-background="new 0 0 1024 768" xml:space="preserve">
<circle fill="#00C700" cx="238.598" cy="365.851" r="208.621"/>
<g>
	<path fill="#FFFFFF" d="M126.812,308.869c24.78,0,37.52,14.14,37.52,14.14l-11.34,18.48c0,0-11.2-10.22-25.06-10.22
		c-19.18,0-28.28,14.14-28.28,28.56c0,14.84,9.8,30.101,28.28,30.101c15.12,0,26.6-12.321,26.6-12.321l12.6,17.92
		c0,0-14.14,16.799-40.32,16.799c-31.36,0-52.5-22.26-52.5-51.939C74.312,331.269,96.712,308.869,126.812,308.869z"/>
	<path fill="#FFFFFF" d="M232.09,389.648h-31.22l-6.02,21h-25.2l34.02-100.099h25.76l34.02,100.099h-25.2L232.09,389.648z
		 M216.41,333.369c0,0-2.24,10.92-4.06,17.22l-5.74,19.46h19.74l-5.6-19.46c-1.82-6.3-4.06-17.22-4.06-17.22H216.41z"/>
	<path fill="#FFFFFF" d="M274.648,310.549h24.5v38.64h10.08l20.72-38.64h26.32l-27.02,47.88v0.28l28.56,51.939h-27.44l-21.14-40.599
		h-10.08v40.599h-24.5V310.549z"/>
	<path fill="#FFFFFF" d="M371.526,310.549h24.5v100.099h-24.5V310.549z"/>
</g>
<g>
	<path fill="#00C700" d="M517.955,268.55c21.238,0,32.158,12.119,32.158,12.119l-9.719,15.84c0,0-9.6-8.76-21.48-8.76
		c-16.438,0-24.238,12.119-24.238,24.479c0,12.719,8.4,25.799,24.238,25.799c12.961,0,22.8-10.561,22.8-10.561l10.8,15.359
		c0,0-12.119,14.4-34.559,14.4c-26.879,0-44.999-19.08-44.999-44.519C472.957,287.75,492.156,268.55,517.955,268.55z"/>
	<path fill="#00C700" d="M608.193,337.788h-26.76l-5.159,17.999h-21.599l29.158-85.796h22.079l29.159,85.796h-21.6L608.193,337.788z
		 M594.754,289.549c0,0-1.92,9.359-3.48,14.759l-4.92,16.679h16.92l-4.8-16.679c-1.56-5.4-3.479-14.759-3.479-14.759H594.754z"/>
	<path fill="#00C700" d="M656.553,287.989h-26.039V269.99h73.078v17.999h-26.039v67.797h-21V287.989z"/>
	<path fill="#00C700" d="M752.551,337.788h-26.758l-5.16,17.999h-21.6l29.159-85.796h22.079l29.158,85.796h-21.598L752.551,337.788z
		 M739.111,289.549c0,0-1.92,9.359-3.479,14.759l-4.92,16.679h16.919l-4.8-16.679c-1.561-5.4-3.48-14.759-3.48-14.759H739.111z"/>
	<path fill="#00C700" d="M800.912,287.989h-26.039V269.99h73.077v17.999h-26.039v67.797h-20.999V287.989z"/>
	<path fill="#00C700" d="M896.91,337.788h-26.76l-5.159,17.999h-21.599l29.158-85.796h22.079l29.159,85.796h-21.6L896.91,337.788z
		 M883.471,289.549c0,0-1.92,9.359-3.48,14.759l-4.92,16.679h16.92l-4.8-16.679c-1.56-5.4-3.479-14.759-3.479-14.759H883.471z"/>
	<path fill="#00C700" d="M933.391,269.99h21.238l23.76,40.078c3.359,5.64,7.199,14.639,7.199,14.639h0.24
		c0,0-0.959-9.239-0.959-14.639V269.99h20.998v85.796h-21.119l-23.879-39.958c-3.359-5.64-7.199-14.639-7.199-14.639h-0.24
		c0,0,0.961,9.239,0.961,14.639v39.958h-21V269.99z"/>
</g>
<g>
	<path fill="#00C700" d="M478.836,380.473h20.999v33.119h8.64l17.759-33.119h22.559l-23.158,41.038v0.24l24.479,44.519h-23.52
		l-18.119-34.799h-8.64v34.799h-20.999V380.473z"/>
	<path fill="#00C700" d="M604.834,448.27h-26.76l-5.16,18h-21.599l29.159-85.797h22.078l29.16,85.797h-21.6L604.834,448.27z
		 M591.395,400.031c0,0-1.92,9.359-3.48,14.76l-4.92,16.68h16.92l-4.801-16.68c-1.56-5.4-3.479-14.76-3.479-14.76H591.395z"/>
	<path fill="#00C700" d="M641.313,380.473h20.999v33.119h8.64l17.759-33.119h22.56l-23.159,41.038v0.24l24.479,44.519h-23.518
		l-18.12-34.799h-8.64v34.799h-20.999V380.473z"/>
	<path fill="#00C700" d="M724.352,380.473h20.999v85.797h-20.999V380.473z"/>
</g>
<g>
</g>
<g>
</g>
<g>
</g>
<g>
</g>
<g>
</g>
<g>
</g>
<g>
</g>
<g>
</g>
<g>
</g>
<g>
</g>
<g>
</g>
<g>
</g>
<g>
</g>
<g>
</g>
<g>
</g>
</svg>
